<?xml version="1.0" encoding="UTF-8"?> <svg xmlns="http://www.w3.org/2000/svg" width="175" height="41" viewBox="0 0 175 41" fill="none"><path fill-rule="evenodd" clip-rule="evenodd" d="M56.9546 22.0543C57.0952 15.8595 61.3499 12.0801 65.6824 12.0801C70.518 12.0801 73.1744 15.5502 73.0413 20.9659C73.0357 21.5543 72.9837 22.1413 72.8859 22.7215H60.1105C60.2511 26.814 62.6523 29.3858 66.2817 29.3858C67.6457 29.3771 68.9868 29.0329 70.1887 28.3832C70.7994 28.2603 71.4133 28.5788 71.6686 29.151C71.9253 29.5758 71.8196 30.1276 71.4244 30.4257L71.3505 30.4667C71.3109 30.4914 71.2687 30.5114 71.2247 30.5264C69.5767 31.4541 67.7219 31.9453 65.8341 31.9539C60.7543 31.9539 56.814 28.249 56.9546 22.0543ZM60.1105 20.6118H70.2553V20.6155C70.3404 16.7727 68.6681 14.6146 65.7046 14.6109C63.0703 14.6109 60.5878 16.7914 60.1105 20.6118Z" fill="#555759"></path><path fill-rule="evenodd" clip-rule="evenodd" d="M100.216 20.5745C98.0888 19.7545 96.0317 19.0538 96.0724 17.302C96.1057 15.8595 97.2231 14.5736 99.6057 14.5736C100.788 14.5884 101.942 14.9385 102.936 15.5837C103.199 15.7852 103.537 15.8581 103.859 15.7824C104.181 15.7067 104.453 15.4904 104.6 15.1924C104.914 14.5593 104.742 13.7916 104.19 13.3548C102.801 12.5358 101.222 12.1 99.6131 12.0913C95.5138 12.0913 93.0423 14.4283 92.9757 17.4697C92.9054 20.664 95.843 21.9425 98.5254 22.9265C100.575 23.7055 102.817 24.5627 102.776 26.5084C102.743 28.1446 101.467 29.4902 98.9657 29.4902C97.2936 29.4711 95.6725 28.9076 94.3446 27.8837C93.8596 27.5389 93.1957 27.6107 92.7944 28.0515L92.7685 28.0813C92.7167 28.1399 92.6709 28.2036 92.6316 28.2714C92.2679 28.9419 92.4474 29.7797 93.0534 30.2394C94.7711 31.3309 96.7538 31.9253 98.7844 31.9576C103.272 31.9576 105.788 29.3858 105.855 26.3071C105.943 22.7364 102.924 21.5884 100.216 20.5745Z" fill="#555759"></path><path fill-rule="evenodd" clip-rule="evenodd" d="M111.201 14.3575C112.94 13.3772 115.289 12.3969 117.923 12.3969C122.567 12.382 124.461 15.375 124.354 19.967L124.324 30.7985C124.254 31.4823 123.662 31.9897 122.981 31.9502C122.245 31.978 121.614 31.4278 121.534 30.6904L121.268 29.0951H121.19C119.326 30.545 117.198 31.7787 114.856 31.7787C111.656 31.7787 109.314 29.8666 109.377 26.5605C109.455 22.5351 113.084 20.5075 121.176 19.6055C121.22 17.2498 120.447 14.9836 117.365 14.9836C115.711 15.037 114.098 15.5129 112.677 16.3665C112.069 16.6 111.381 16.3732 111.027 15.8223C110.646 15.2781 110.727 14.6407 111.201 14.3575ZM115.804 29.274C117.639 29.2665 119.193 28.3869 121.042 26.7842L121.139 21.6555C114.764 22.4382 112.588 23.9664 112.544 26.3183C112.507 28.4093 113.968 29.2815 115.804 29.274Z" fill="#555759"></path><path fill-rule="evenodd" clip-rule="evenodd" d="M142.076 22.0543C142.213 15.8595 146.471 12.0801 150.8 12.0801C155.639 12.0801 158.296 15.5502 158.174 20.9659C158.168 21.5543 158.116 22.1414 158.018 22.7215H145.232C145.372 26.814 147.773 29.3858 151.403 29.3858C152.767 29.3774 154.108 29.0332 155.31 28.3832C155.921 28.2588 156.536 28.5778 156.79 29.151C157.047 29.5758 156.941 30.1276 156.546 30.4257L156.472 30.4667C156.432 30.4915 156.39 30.5115 156.346 30.5264C154.698 31.4538 152.843 31.9449 150.955 31.9539C145.872 31.9539 141.939 28.249 142.076 22.0543ZM145.228 20.6118H155.373V20.6155C155.458 16.7727 153.789 14.6146 150.826 14.6109C148.188 14.6109 145.705 16.7914 145.228 20.6118Z" fill="#555759"></path><path fill-rule="evenodd" clip-rule="evenodd" d="M83.8817 20.5745C81.7543 19.7545 79.7009 19.0538 79.7379 17.302C79.7712 15.8595 80.8886 14.5736 83.2712 14.5736C84.4535 14.587 85.608 14.9372 86.601 15.5837C86.8642 15.7852 87.2029 15.8581 87.5248 15.7824C87.8467 15.7067 88.1184 15.4904 88.2659 15.1924C88.5791 14.5593 88.4075 13.7916 87.8553 13.3548C86.4666 12.5355 84.8879 12.0996 83.2786 12.0913C79.1829 12.0913 76.7152 14.4283 76.6486 17.4697C76.5783 20.664 79.5122 21.9425 82.1983 22.9265C84.2517 23.7055 86.4974 24.5627 86.453 26.5084C86.416 28.1446 85.1396 29.4902 82.6423 29.4902C80.9696 29.4794 79.345 28.9252 78.0101 27.9098C77.5267 27.5638 76.8629 27.6358 76.4636 28.0775L76.4377 28.1074C76.3853 28.1655 76.3394 28.2292 76.3008 28.2975C75.9371 28.968 76.1166 29.8058 76.7226 30.2655C78.4457 31.3557 80.4338 31.9463 82.4684 31.9725C86.9525 31.9725 89.4684 29.4007 89.5387 26.322C89.6053 22.7364 86.5751 21.5884 83.8817 20.5745Z" fill="#555759"></path><path fill-rule="evenodd" clip-rule="evenodd" d="M169.051 20.5745C166.923 19.7545 164.87 19.0538 164.907 17.302C164.94 15.8595 166.061 14.5736 168.44 14.5736C169.622 14.5884 170.776 14.9385 171.77 15.5837C172.033 15.7852 172.372 15.8581 172.694 15.7824C173.016 15.7067 173.288 15.4904 173.435 15.1924C173.748 14.5593 173.577 13.7916 173.024 13.3548C171.636 12.5353 170.057 12.0995 168.448 12.0913C164.348 12.0913 161.877 14.4283 161.814 17.4697C161.744 20.664 164.681 21.9425 167.364 22.9265C169.413 23.7055 171.659 24.5627 171.615 26.5084C171.578 28.1446 170.301 29.4902 167.804 29.4902C166.125 29.4743 164.495 28.9107 163.161 27.8837C162.676 27.5389 162.012 27.6107 161.611 28.0515L161.588 28.0813C161.537 28.14 161.491 28.2037 161.451 28.2714C161.085 28.9408 161.263 29.7796 161.869 30.2394C163.593 31.3282 165.581 31.9187 167.615 31.9465C172.103 31.9465 174.619 29.3746 174.686 26.2959C174.778 22.7364 171.759 21.5884 169.051 20.5745Z" fill="#555759"></path><path fill-rule="evenodd" clip-rule="evenodd" d="M139.071 12.2441H138.798C136.729 12.2888 134.85 13.7648 133.566 16.0496V13.3958C133.476 12.5614 132.767 11.9349 131.934 11.9534H131.842C131.451 11.9523 131.076 12.1098 130.802 12.3902C130.528 12.6707 130.377 13.0506 130.384 13.4443V18.5544V30.6046C130.471 31.4435 131.183 32.0746 132.02 32.0545H132.112C132.503 32.0556 132.878 31.8981 133.152 31.6177C133.426 31.3372 133.577 30.9573 133.57 30.5636V19.7285C134.854 16.4634 136.766 15.2334 138.38 15.1998C138.696 15.19 139.013 15.2087 139.327 15.2557C139.666 15.2611 139.99 15.117 140.215 14.8612C140.44 14.6054 140.542 14.2635 140.496 13.9251C140.458 13.1025 139.872 12.4103 139.071 12.2441Z" fill="#555759"></path><path fill-rule="evenodd" clip-rule="evenodd" d="M54.7829 30.0754C54.5224 29.4652 53.877 29.1184 53.229 29.2405C52.9461 29.3174 52.6559 29.3636 52.3632 29.3784C50.1803 29.4305 49.4367 28.126 49.4293 25.7853V15.0731H52.5186C52.8386 15.0275 53.1265 14.853 53.3163 14.5894C53.506 14.3259 53.5813 13.996 53.525 13.6754C53.4702 12.9998 52.9175 12.4752 52.2448 12.4603H49.4293V9.07964C49.4293 9.07964 49.4293 9.05728 49.4293 9.04609C49.4414 8.1612 48.7515 7.42771 47.8737 7.39233C46.996 7.35696 46.2501 8.0326 46.192 8.91564V12.4565H44.7565C44.0845 12.4717 43.533 12.9967 43.48 13.6716C43.4236 13.9917 43.4984 14.3211 43.6874 14.5845C43.8764 14.8479 44.1634 15.0229 44.4827 15.0694H46.192V25.8225C46.192 29.5498 47.572 32.103 51.627 32.0024C52.532 31.955 53.4267 31.7858 54.2871 31.4992C54.8495 31.3352 55.0715 30.6978 54.7829 30.0754Z" fill="#555759"></path><path fill-rule="evenodd" clip-rule="evenodd" d="M29.2653 2.05373C28.7898 1.14879 27.9767 0.471392 27.0052 0.170769C26.0336 -0.129853 24.9833 -0.0290398 24.0856 0.451001L13.9371 5.87046L13.7114 5.986C11.9749 6.91156 10.675 8.49482 10.0983 10.3868C9.52153 12.2787 9.7153 14.3241 10.6369 16.072L10.7404 16.2584H10.722L14.0518 22.5947C12.349 18.9882 13.77 14.6705 17.2743 12.8032L17.5 12.6876L27.6744 7.26818C28.5726 6.78918 29.245 5.97007 29.5435 4.9913C29.8419 4.01252 29.7418 2.95439 29.2653 2.05" fill="#61B3E5"></path><path fill-rule="evenodd" clip-rule="evenodd" d="M10.7036 39.0022C11.7436 40.85 14.0706 41.5031 15.9092 40.4633L25.8986 34.7755L26.1206 34.6562C27.8321 33.6846 29.0898 32.0672 29.6166 30.1606C30.1433 28.254 29.8959 26.2146 28.9288 24.4919L28.8178 24.3055H28.8363L25.3511 18.0549C27.1484 21.6135 25.8434 25.9669 22.3912 27.9285L22.1692 28.0477L12.1798 33.7355C10.3391 34.7836 9.6898 37.1362 10.7295 38.991" fill="#004A95"></path><path fill-rule="evenodd" clip-rule="evenodd" d="M37.8046 29.0727C38.676 28.5469 39.3044 27.6939 39.5514 26.7012C39.7985 25.7086 39.6439 24.6578 39.1217 23.78L33.202 13.8505L33.0762 13.6306C30.9754 10.1079 26.4409 8.96255 22.9388 11.07L22.7575 11.1855L16.6492 14.8644C20.1348 12.9623 24.4892 14.1654 26.5239 17.5927L26.6497 17.8126L32.5583 27.7458C33.6435 29.5714 35.9921 30.1653 37.8046 29.0727Z" fill="#BBD8EA"></path><path fill-rule="evenodd" clip-rule="evenodd" d="M0.599402 17.63L6.75955 27.3992L6.88904 27.6154C7.94187 29.2862 9.61099 30.4667 11.5285 30.8967C13.4461 31.3267 15.4547 30.9709 17.1116 29.9076L17.2891 29.7884V29.8107L23.3087 25.9455C19.8731 27.9438 15.4845 26.857 13.36 23.4818C13.3119 23.411 13.2675 23.3365 13.2268 23.2656L7.06293 13.4927C5.91574 11.7272 3.57339 11.2179 1.8055 12.3495C0.037603 13.4811 -0.49975 15.8338 0.599402 17.63Z" fill="#0071CE"></path></svg> 